<svg xmlns="http://www.w3.org/2000/svg" viewBox="0 0 36 24"><rect width="36" height="24" fill="#DE2910"/><path d="M6 3.2l1.1 3.4h3.6L7.8 8.7l1.1 3.4L6 10l-2.9 2.1 1.1-3.4-2.9-2.1h3.6z" fill="#FFDE00"/><g fill="#FFDE00"><path d="M13 3l.4 1.1 1.1.1-.9.7.3 1.1-.9-.6-.9.6.3-1.1-.9-.7 1.1-.1z"/><path d="M15.5 6l.4 1.1 1.1.1-.9.7.3 1.1-.9-.6-.9.6.3-1.1-.9-.7 1.1-.1z"/><path d="M15.5 9.5l.4 1.1 1.1.1-.9.7.3 1.1-.9-.6-.9.6.3-1.1-.9-.7 1.1-.1z"/><path d="M13 12l.4 1.1 1.1.1-.9.7.3 1.1-.9-.6-.9.6.3-1.1-.9-.7 1.1-.1z"/></g></svg>
