<svg xmlns="http://www.w3.org/2000/svg" viewBox="0 0 36 24"><rect width="36" height="24" fill="#fff"/><g fill="#CC0001"><rect y="0" width="36" height="1.72"/><rect y="3.43" width="36" height="1.72"/><rect y="6.86" width="36" height="1.72"/><rect y="10.29" width="36" height="1.72"/><rect y="13.71" width="36" height="1.72"/><rect y="17.14" width="36" height="1.72"/><rect y="20.57" width="36" height="1.72"/></g><rect width="20" height="13.71" fill="#010066"/><path d="M11 6.86a4 4 0 100 7.5 4.6 4.6 0 11-2.3-8.5 4 4 0 012.3 1z" fill="#FFCC00"/><path d="M13.2 6.5l.5 1.5h1.6l-1.3.95.5 1.5-1.3-.93-1.3.93.5-1.5-1.3-.95h1.6z" fill="#FFCC00"/></svg>
